<svg width="64" height="64" fill="none" xmlns="http://www.w3.org/2000/svg"><path fill="#EB3333" d="M0 0h64v64H0z"/><path d="M33.809 44.567a32.798 32.798 0 002.742 2.94 34.518 34.518 0 0016.925 8.786v-3.888a30.43 30.43 0 01-14.1-7.555 28.673 28.673 0 01-3.424-3.877l-2.143 3.594z" fill="#fff"/><path d="M19.669 40.519a21.757 21.757 0 006.919-15.795V7.707h3.991v17.017c.001 3.13.48 6.24 1.42 9.225a30.745 30.745 0 001.42-9.225V7.707h3.991v17.017a21.73 21.73 0 006.92 15.795 23.841 23.841 0 009.15 5.404v3.97a27.94 27.94 0 01-11.975-6.703 26.418 26.418 0 01-5.87-8.204c-1.033 2.67-2.19 5.203-3.615 7.132-1.436-1.93-2.582-4.461-3.615-7.132a26.42 26.42 0 01-5.87 8.214 27.891 27.891 0 01-12.016 6.694v-3.97a23.84 23.84 0 009.15-5.405z" fill="#fff"/><path d="M43.79 24.368a15.835 15.835 0 005.044 11.51 17.392 17.392 0 004.647 3.15v4.126a21.341 21.341 0 01-7.466-4.595 19.559 19.559 0 01-6.196-14.191v-3.831h3.991l-.02 3.831zm-23.584-3.831h3.99v3.83a19.537 19.537 0 01-6.195 14.192 21.34 21.34 0 01-7.482 4.595v-4.126a17.392 17.392 0 004.647-3.15 15.852 15.852 0 005.045-11.51l-.005-3.831zm7.838 20.41a28.668 28.668 0 01-3.424 3.878 30.43 30.43 0 01-14.101 7.554v3.914a34.517 34.517 0 0016.926-8.766 32.77 32.77 0 002.741-2.94l-2.142-3.64z" fill="#fff"/></svg>